<svg width="23" height="24" viewBox="0 0 23 24" fill="none" xmlns="http://www.w3.org/2000/svg">
<path d="M1.65601 1.40503L21.1602 21.9044" stroke="#B3B3B3" stroke-width="2" stroke-linecap="round" stroke-linejoin="round"/>
<path d="M9.78226 10.1482C9.44506 10.5496 9.24048 11.0772 9.24048 11.6548C9.24048 12.9126 10.2107 13.9325 11.4076 13.9325C11.9572 13.9325 12.459 13.7175 12.8411 13.3631" stroke="#B3B3B3" stroke-width="2" stroke-linecap="round" stroke-linejoin="round"/>
<path d="M6.38236 6.59985C4.55999 7.94208 3.04182 9.85435 1.65601 11.6551C3.70239 15.0614 7.37908 18.4882 11.4081 18.4882C13.0875 18.4882 14.7058 17.8928 16.1703 16.9517" stroke="#B3B3B3" stroke-width="2" stroke-linecap="round" stroke-linejoin="round"/>
<path d="M11.4075 4.82178C15.7508 4.82178 18.669 8.4185 21.1596 11.6549C20.8145 12.2292 20.4231 12.8042 19.9915 13.3632" stroke="#B3B3B3" stroke-width="2" stroke-linecap="round" stroke-linejoin="round"/>
</svg>
